# xmcd
# 
# Track frame offsets:
#     150
#     18868
#     29718
#     47134
#     64261
#     85256
#     103245
#     119731
#     133499
#     151027
#     165741
#     178474
#     194273
#     216751
#     232840
#     248141
#     265055
#     277019
#     293583
#     305384
# 
# Disc length: 4425
# 
# Revision: 5
# Processed by: cddbd v1.5.2PL0 Copyright (c) Steve Scherf et al.
# Submitted via: fre:ac v1.0.31
# 
DISCID=2b114714
DTITLE=Justament - Kuld
DYEAR=1999
DGENRE=Country
TTITLE0=Kaua sa kannatad
TTITLE1=Viimne leht
TTITLE2=Ilm on hukas
TTITLE3=Tamula vanake
TTITLE4=Saar
TTITLE5=Paranähtus
TTITLE6=Emad ja pojad
TTITLE7=Maa tuleb täita lastega
TTITLE8=Kesse laulab köögis
TTITLE9=Meie aja kangelane
TTITLE10=36
TTITLE11=Kaugelt maalt
TTITLE12=Petseri tsura ja Hiitola ätt
TTITLE13=Raha teekond
TTITLE14=Suvetiir
TTITLE15=Humalate jook (Nikolaika)
TTITLE16=Vangile ei meeldi trellid
TTITLE17=Tõuse üles ja läheme ära
TTITLE18=DJX esitleb: Justament - Parve Peeter
TTITLE19=Justament on 45 Megamix
EXTD=
EXTT0=
EXTT1=
EXTT2=
EXTT3=
EXTT4=
EXTT5=
EXTT6=
EXTT7=
EXTT8=
EXTT9=
EXTT10=
EXTT11=
EXTT12=
EXTT13=
EXTT14=
EXTT15=
EXTT16=
EXTT17=
EXTT18=
EXTT19=
PLAYORDER=
